PathFileType	4	(X/Y/Z)	Patient4_TMGait_0pt3_01_right_15.trc.trc
DataRate	CameraRate	NumFrames	NumMarkers	Units	OrigDataRate	OrigDataStartFrame	OrigNumFrames
54.263565891473	54.263565891473	5	33	mm	54.263565891473	1	       141
Frame#	Time	Sacral			L.Shoulder			Chest			R.Shoulder			Neck			R.ASIS			L.ASIS			R.Thigh.Superior			R.Thigh.Lateral			R.Thigh.Inferior			R.Patella			L.Thigh.Superior			L.Thigh.Lateral			L.Thigh.Inferior			L.Patella			L.Shank.Superior			L.Shank.Lateral			L.Shank.Inferior			R.Shank.Superior			R.Shank.Lateral			R.Shank.Inferior			R.Heel			R.Midfoot.Superior			R.Midfoot.Lateral			R.Toe			L.Heel			L.Midfoot.Lateral			L.Midfoot.Superior			L.Toe			L.Elbow			L.Wrist			R.Elbow			R.Wrist			
		X1	Y1	Z1	X2	Y2	Z2	X3	Y3	Z3	X4	Y4	Z4	X5	Y5	Z5	X6	Y6	Z6	X7	Y7	Z7	X8	Y8	Z8	X9	Y9	Z9	X10	Y10	Z10	X11	Y11	Z11	X12	Y12	Z12	X13	Y13	Z13	X14	Y14	Z14	X15	Y15	Z15	X16	Y16	Z16	X17	Y17	Z17	X18	Y18	Z18	X19	Y19	Z19	X20	Y20	Z20	X21	Y21	Z21	X22	Y22	Z22	X23	Y23	Z23	X24	Y24	Z24	X25	Y25	Z25	X26	Y26	Z26	X27	Y27	Z27	X28	Y28	Z28	X29	Y29	Z29	X30	Y30	Z30	X31	Y31	Z31	X32	Y32	Z32	X33	Y33	Z33	

1	26.920000000000	740.808841575882	985.077503814240	436.048512953688	918.192236225704	1414.916902707955	250.296976222186	1014.507830409551	1352.474290526390	417.826530688260	922.596811929712	1429.848412787707	585.213989867548	898.477805414707	1481.893463484147	405.522482759286	967.702828921703	932.866388633892	561.690797251517	964.688349557463	946.742349022404	287.001255905190	1041.493575471078	746.637109125382	540.475975142961	985.627277266846	630.994959404593	612.519627517126	1073.546350473375	581.692223140444	536.278878082313	1078.963057309292	468.365832494905	565.370616545256	1029.364505993111	742.875627231707	337.193638457973	957.487742797079	613.926093136711	283.448143040615	1042.236667516437	547.248681210081	360.597383630365	1046.615736983827	472.233580018866	373.269234623932	1005.267972064766	397.910322870206	367.022202599576	903.969446485753	296.300372887927	310.868299117880	925.544936763226	182.812485023040	389.836014674307	994.871424976515	402.291211895779	575.167782523270	864.339898565405	378.445167275537	624.632889625787	847.734233890403	265.023544830633	587.236619108175	646.831022281860	212.997560817365	538.251675540222	803.232091272622	151.178864835608	613.384145916529	690.367290310873	166.069086891539	629.703154602719	852.492709563908	42.723561190754	670.945117409541	773.701701348802	39.283815919333	421.624274498515	852.846488038729	36.643712295557	346.374671232090	935.627834040021	95.228360923663	379.565889820860	1064.653683355568	40.505106374245	357.841067761812	985.849800433750	1075.444496306359	118.265949391517	1153.607683964066	874.831752750320	126.919268928593	964.760459313168	1078.988717253604	702.588302645380	1169.430267220381	916.031428277302	689.841454994577	
2	26.938428571429	739.521716516073	982.815630475714	432.875809583899	918.935951315557	1414.326309969246	250.778043152419	1012.804026714570	1351.060819900055	419.334865576488	918.162372384937	1426.681336793324	585.936714250482	896.970127082379	1480.403960698704	406.214859773321	965.920781781789	931.838394777248	560.487095002514	964.939821286515	945.492238671560	285.735158478269	1043.291373359183	748.752562444017	539.382217306937	990.349760070434	632.457737300591	611.934282271152	1079.554347770029	585.146720568453	536.018299695977	1087.850558735490	472.127097108943	565.440538732658	1029.196551635556	741.182161818687	335.984790965525	957.296701653205	612.091961031337	282.628983777869	1041.699282946157	545.532084496558	360.312977319835	1045.848571907663	470.257896138840	373.308579733664	1003.530153757132	396.017963217382	367.083427428382	901.226644114640	295.496244004738	310.887950976002	921.153786906827	181.879295501687	389.933351760307	1005.127967369729	404.315535790481	575.180240450700	874.971177074073	377.566529493663	624.236882213865	861.027174124559	263.771250036757	586.979415989614	661.354974308166	206.152508929391	537.730714098487	819.508546873995	149.933266812984	613.437565065028	706.183118309848	160.636628761328	629.194818638406	872.276891367936	43.024712390036	670.588893040295	768.021332966654	39.363990791295	421.621217749609	847.191316679841	36.673460457193	346.378683188111	930.018232185443	95.067986123248	379.654252007136	1058.991667959925	40.313197782798	357.752248045252	993.361540810556	1076.981982486966	118.268584740982	1169.089184054337	884.131688393705	128.595304322770	945.954016908477	1074.569850959961	701.755713130796	1131.117661870621	894.730619305382	693.288455162300	
3	26.956857142857	738.254580786739	980.830230515432	429.690174369011	919.785706165824	1413.983497208526	251.358396838717	1011.130115054066	1349.859740988124	420.951655770320	913.706895539584	1423.746158633999	586.713863250367	895.500258579628	1479.133370630260	407.004752335344	964.076070874053	931.021350695307	559.359668711641	965.230475371177	944.445470262430	284.547920317450	1044.917995835950	751.025634893400	538.320595892678	994.849819795463	634.115969231696	611.393602875228	1085.264801569342	588.752676841034	535.753494480838	1096.486397469955	476.166109816821	565.523738699703	1028.869636145637	739.577011376246	334.893865483432	956.823809123678	610.414349317854	281.848290049373	1040.752120436866	543.886919794922	360.092891818731	1044.607906770576	468.399449327521	373.395713250224	1001.382724245642	394.259671837660	367.155995687769	898.169809683600	294.746375991633	310.895392934981	916.538948839260	181.013477997648	390.024184518292	1015.382284845190	406.500275292449	575.298362726795	885.806866749083	376.442343612782	624.039645326896	874.936418213228	262.274751244414	586.984787109502	676.888164655142	198.322775604041	537.607076006081	836.817037243397	148.383231956011	613.807422663350	723.143887119879	154.517634802060	629.106861579210	893.435996335181	43.397121915818	670.636853207537	762.214690779395	39.435397110193	421.612529424387	841.410964705530	36.697251769559	346.376781971817	924.278487417227	94.918816774630	379.732014579921	1053.205268901707	40.138915034062	357.668032602661	1000.906441796760	1078.822794385946	118.299764128950	1184.714378488902	894.056009405323	130.453490889303	926.606523359952	1070.619654497156	700.881034112737	1091.760281609871	874.376510401366	696.681738796986	
4	26.975285714286	737.051438266987	979.322669503553	426.585891587357	920.782689864831	1414.020175303288	252.079901611636	1009.552116035001	1349.013551902216	422.696871533720	909.349000847899	1421.256733610546	587.553611056521	894.136923736814	1478.231928482148	407.916214287465	962.184792124835	930.548333388793	558.399057516946	965.567322829361	943.736985084872	283.536286381875	1046.218484788917	753.460825796244	537.359105739200	998.852027979065	636.008278200500	610.954584394414	1090.329090916411	592.464378040421	535.518228664254	1104.459479624866	480.502268714366	565.645429706877	1028.287119207539	738.147256981294	334.014111542477	955.911214783016	609.028590535190	281.143487110283	1039.182908804545	542.400400096915	359.962699964807	1042.658396784622	466.775860781566	373.535904217725	998.648378888646	392.761269640973	367.234280089483	894.703571074709	294.102734336551	310.876583879221	911.702017690869	180.278770284524	390.098387982948	1025.316624761161	408.873181647220	575.577875097087	896.667230047623	374.990170961985	624.168984787964	889.401344016176	260.494712925754	587.378552954230	693.564134205376	189.316101427809	538.093255535247	855.235230704565	146.472659610986	614.619467024646	741.421633370609	147.596087517071	629.633391416289	916.094297978348	43.912633239359	671.209706056044	756.373358653432	39.494189213977	421.591656122657	835.593817957331	36.712354404282	346.365655280736	918.493442023893	94.790825125113	379.790318110975	1047.383096588287	39.994933114449	357.593050916033	1008.303969170646	1081.075247360532	118.377731558761	1200.111875397218	904.678188885090	132.549445825381	907.002315636509	1067.539601440949	699.966189754858	1052.004605408719	856.101054574039	699.880111403348	
5	26.993714285714	735.944991390671	978.453587617907	423.641122847996	921.967426127561	1414.537557858567	252.979719076114	1008.122220086719	1348.635015808809	424.593235028810	905.179733254981	1419.387883328694	588.462879384404	892.937384584259	1477.819297459007	408.967186983083	960.252062266893	930.525585236778	557.687184948797	965.956441571001	943.475320218964	282.789096157035	1047.055720700560	756.054501432103	536.565113362050	1002.120007033936	638.155049037654	610.671555276407	1094.454222006981	596.232514742248	535.351312763275	1111.428621566010	485.144417251966	565.830872390944	1027.358037674519	736.958550158853	333.420382825798	954.417626434616	608.046646448869	280.541280359783	1036.806785302102	541.144250792092	359.934597587987	1039.794635196266	465.483342601317	373.724086605734	995.169847462661	391.626393393217	367.307869313168	890.736759763134	293.608745884295	310.816114843213	906.629846509449	179.728360196060	390.144975018885	1034.669524432824	411.462573409710	576.059012153327	907.433706332497	373.154937033498	624.732198637640	904.391886847563	258.437403993816	588.247089318307	711.538312724489	179.051143819480	539.349813252968	874.854811042895	144.208250428246	615.951192498735	761.202923936091	139.838186145391	630.903758128828	940.364592827834	44.682752022834	672.349016823748	750.556202551590	39.539126484623	421.552566935505	829.796518811419	36.717085076855	346.342948077772	912.717665918310	94.691737741370	379.821458846771	1041.581976316176	39.889334771223	357.531020623151	1015.432616808419	1083.830843403668	118.516257514832	1214.999202446111	916.083703703319	134.937128283736	887.360371757835	1065.677354364326	699.007132477713	1012.394460031911	840.819088662117	702.763837517303	
